<mxfile host="app.diagrams.net" modified="2022-03-16T15:13:11.902Z" agent="5.0 (Macintosh; Intel Mac OS X 10_13_6) AppleWebKit/537.36 (KHTML, like Gecko) Chrome/98.0.4758.109 Safari/537.36" etag="8W6KWE1vZIp5ixeP_lyk" version="16.5.3" type="github">
  <diagram id="Cjoy0PX0SeyO5-iGdg0D" name="第 1 页">
    <mxGraphModel dx="1678" dy="907" grid="1" gridSize="10" guides="1" tooltips="1" connect="1" arrows="1" fold="1" page="1" pageScale="1" pageWidth="827" pageHeight="1169" background="#FFFFCC" math="0" shadow="0">
      <root>
        <mxCell id="0" />
        <mxCell id="1" parent="0" />
        <mxCell id="PCVEVQ1oh-VH7ZwHGPTf-17" value="堆" style="rounded=0;whiteSpace=wrap;html=1;sketch=1;" vertex="1" parent="1">
          <mxGeometry x="250" y="210" width="400" height="210" as="geometry" />
        </mxCell>
        <mxCell id="PCVEVQ1oh-VH7ZwHGPTf-2" value="Java进程内存&lt;br&gt;（灰色为线程私有）" style="text;html=1;strokeColor=none;fillColor=none;align=center;verticalAlign=middle;whiteSpace=wrap;rounded=0;sketch=1;" vertex="1" parent="1">
          <mxGeometry x="400" y="160" width="170" height="30" as="geometry" />
        </mxCell>
        <mxCell id="PCVEVQ1oh-VH7ZwHGPTf-3" value="虚拟机栈" style="rounded=0;whiteSpace=wrap;html=1;sketch=1;fillColor=#CCCCCC;" vertex="1" parent="1">
          <mxGeometry x="250" y="240" width="120" height="90" as="geometry" />
        </mxCell>
        <mxCell id="PCVEVQ1oh-VH7ZwHGPTf-4" value="本地方法栈" style="rounded=0;whiteSpace=wrap;html=1;sketch=1;fillColor=#CCCCCC;" vertex="1" parent="1">
          <mxGeometry x="250" y="330" width="120" height="90" as="geometry" />
        </mxCell>
        <mxCell id="PCVEVQ1oh-VH7ZwHGPTf-6" value="程序计数器" style="rounded=0;whiteSpace=wrap;html=1;sketch=1;fillColor=#CCCCCC;" vertex="1" parent="1">
          <mxGeometry x="250" y="210" width="120" height="30" as="geometry" />
        </mxCell>
        <mxCell id="PCVEVQ1oh-VH7ZwHGPTf-8" value="方法区" style="rounded=0;whiteSpace=wrap;html=1;sketch=1;" vertex="1" parent="1">
          <mxGeometry x="370" y="380" width="280" height="40" as="geometry" />
        </mxCell>
        <mxCell id="PCVEVQ1oh-VH7ZwHGPTf-10" value="主机内存" style="rounded=1;whiteSpace=wrap;html=1;sketch=1;" vertex="1" parent="1">
          <mxGeometry x="790" y="130" width="290" height="450" as="geometry" />
        </mxCell>
        <mxCell id="PCVEVQ1oh-VH7ZwHGPTf-15" style="edgeStyle=orthogonalEdgeStyle;rounded=0;sketch=1;orthogonalLoop=1;jettySize=auto;html=1;entryX=1;entryY=0;entryDx=0;entryDy=0;" edge="1" parent="1" source="PCVEVQ1oh-VH7ZwHGPTf-11" target="PCVEVQ1oh-VH7ZwHGPTf-17">
          <mxGeometry relative="1" as="geometry">
            <mxPoint x="860" y="395" as="targetPoint" />
            <Array as="points">
              <mxPoint x="660" y="250" />
            </Array>
          </mxGeometry>
        </mxCell>
        <mxCell id="PCVEVQ1oh-VH7ZwHGPTf-11" value="进程1" style="shape=cube;whiteSpace=wrap;html=1;boundedLbl=1;backgroundOutline=1;darkOpacity=0.05;darkOpacity2=0.1;sketch=1;" vertex="1" parent="1">
          <mxGeometry x="810" y="170" width="120" height="80" as="geometry" />
        </mxCell>
        <mxCell id="PCVEVQ1oh-VH7ZwHGPTf-12" value="&lt;span&gt;进程3&lt;/span&gt;" style="shape=cube;whiteSpace=wrap;html=1;boundedLbl=1;backgroundOutline=1;darkOpacity=0.05;darkOpacity2=0.1;sketch=1;" vertex="1" parent="1">
          <mxGeometry x="860" y="430" width="120" height="80" as="geometry" />
        </mxCell>
        <mxCell id="PCVEVQ1oh-VH7ZwHGPTf-13" value="&lt;span&gt;进程2&lt;/span&gt;" style="shape=cube;whiteSpace=wrap;html=1;boundedLbl=1;backgroundOutline=1;darkOpacity=0.05;darkOpacity2=0.1;sketch=1;" vertex="1" parent="1">
          <mxGeometry x="940" y="250" width="120" height="80" as="geometry" />
        </mxCell>
        <mxCell id="PCVEVQ1oh-VH7ZwHGPTf-20" value="" style="rounded=1;whiteSpace=wrap;html=1;sketch=1;fillColor=default;" vertex="1" parent="1">
          <mxGeometry x="340" y="590" width="120" height="280" as="geometry" />
        </mxCell>
        <mxCell id="PCVEVQ1oh-VH7ZwHGPTf-21" value="虚拟机栈" style="text;html=1;strokeColor=none;fillColor=none;align=center;verticalAlign=middle;whiteSpace=wrap;rounded=0;sketch=1;" vertex="1" parent="1">
          <mxGeometry x="344" y="555" width="126" height="30" as="geometry" />
        </mxCell>
        <mxCell id="PCVEVQ1oh-VH7ZwHGPTf-23" value="&lt;span&gt;b栈帧&lt;/span&gt;" style="rounded=0;whiteSpace=wrap;html=1;sketch=1;fillColor=default;" vertex="1" parent="1">
          <mxGeometry x="340" y="700" width="120" height="60" as="geometry" />
        </mxCell>
        <mxCell id="PCVEVQ1oh-VH7ZwHGPTf-28" style="edgeStyle=orthogonalEdgeStyle;rounded=0;sketch=1;orthogonalLoop=1;jettySize=auto;html=1;entryX=0;entryY=0;entryDx=0;entryDy=0;" edge="1" parent="1" source="PCVEVQ1oh-VH7ZwHGPTf-24" target="PCVEVQ1oh-VH7ZwHGPTf-27">
          <mxGeometry relative="1" as="geometry" />
        </mxCell>
        <mxCell id="PCVEVQ1oh-VH7ZwHGPTf-24" value="c栈帧" style="rounded=0;whiteSpace=wrap;html=1;sketch=1;fillColor=default;" vertex="1" parent="1">
          <mxGeometry x="340" y="640" width="120" height="60" as="geometry" />
        </mxCell>
        <mxCell id="PCVEVQ1oh-VH7ZwHGPTf-25" value="&lt;span&gt;a栈帧&lt;/span&gt;" style="rounded=0;whiteSpace=wrap;html=1;sketch=1;fillColor=default;" vertex="1" parent="1">
          <mxGeometry x="340" y="760" width="120" height="60" as="geometry" />
        </mxCell>
        <mxCell id="PCVEVQ1oh-VH7ZwHGPTf-27" value="" style="rounded=0;whiteSpace=wrap;html=1;sketch=1;fillColor=default;" vertex="1" parent="1">
          <mxGeometry x="530" y="650" width="190" height="180" as="geometry" />
        </mxCell>
        <mxCell id="PCVEVQ1oh-VH7ZwHGPTf-29" value="&lt;h1&gt;方法调用&lt;/h1&gt;&lt;p&gt;a调用b, b调用c&lt;/p&gt;" style="text;html=1;strokeColor=none;fillColor=none;spacing=5;spacingTop=-20;whiteSpace=wrap;overflow=hidden;rounded=0;sketch=1;" vertex="1" parent="1">
          <mxGeometry x="150" y="555" width="150" height="100" as="geometry" />
        </mxCell>
        <mxCell id="PCVEVQ1oh-VH7ZwHGPTf-30" value="变量表" style="rounded=0;whiteSpace=wrap;html=1;sketch=1;fillColor=default;" vertex="1" parent="1">
          <mxGeometry x="548" y="660" width="80" height="50" as="geometry" />
        </mxCell>
        <mxCell id="PCVEVQ1oh-VH7ZwHGPTf-31" value="操作&lt;br&gt;数栈" style="rounded=0;whiteSpace=wrap;html=1;sketch=1;fillColor=default;" vertex="1" parent="1">
          <mxGeometry x="640" y="660" width="60" height="110" as="geometry" />
        </mxCell>
        <mxCell id="PCVEVQ1oh-VH7ZwHGPTf-32" value="动态连接" style="rounded=0;whiteSpace=wrap;html=1;sketch=1;fillColor=default;" vertex="1" parent="1">
          <mxGeometry x="546" y="720" width="80" height="50" as="geometry" />
        </mxCell>
        <mxCell id="PCVEVQ1oh-VH7ZwHGPTf-33" value="出口地址" style="rounded=0;whiteSpace=wrap;html=1;sketch=1;fillColor=default;" vertex="1" parent="1">
          <mxGeometry x="545" y="780" width="155" height="40" as="geometry" />
        </mxCell>
      </root>
    </mxGraphModel>
  </diagram>
</mxfile>
